<?xml version="1.0" encoding="iso-8859-1"?>
<!-- Generator: Adobe Illustrator 17.1.0, SVG Export Plug-In . SVG Version: 6.00 Build 0)  -->
<!DOCTYPE svg PUBLIC "-//W3C//DTD SVG 1.1//EN" "http://www.w3.org/Graphics/SVG/1.1/DTD/svg11.dtd">
<svg version="1.1" id="Layer_1" xmlns="http://www.w3.org/2000/svg" xmlns:xlink="http://www.w3.org/1999/xlink" x="0px" y="0px"
	 viewBox="0 0 436.169 495.644" style="enable-background:new 0 0 436.169 495.644;" xml:space="preserve">
<g>
	<path style="fill:#CE202A;" d="M230.12,2.82c0.012-0.004,0.01-0.014-0.022-0.04C229.307,2.334,229.348,2.367,230.12,2.82z"/>
	<path style="fill:#CE202A;" d="M208.805,171.553h-30.297v63.786h29.064c14.381,0,25.925-3.181,34.648-9.582
		c8.852-6.492,13.285-14.546,13.285-24.156C255.506,181.583,239.921,171.553,208.805,171.553z"/>
	<path style="fill:#CE202A;" d="M436.168,351.588V142.344c0,0-0.035-19.812-11.166-27.074C383.577,91.396,240.501,8.919,230.12,2.82
		c-0.292,0.089-13.692-6.353-24.021-0.054C205.983,3.138,57.035,88.884,12.462,114.533c-12.928,7.958-12.459,27.894-12.459,27.894
		v217.91c0,0,0.151,12.48,14.077,21.21c44.834,25.926,181.92,105.191,192.182,110.935c-0.05-0.044-0.067-0.07-0.038-0.07
		c0.873,0.522,0.846,0.523,0.038,0.07c0.831,0.724,12.296,6.898,24.036-0.269c0.957-0.559,150.049-86.6,193.887-111.893
		C436.546,372.508,436.168,351.588,436.168,351.588z M249.937,361.549c5.514-4.634,12.254-12.081,8.517-19.626
		c-1.172-2.368-1.385-3.098-0.38-5.673c0.799-2.037,0.62-3.373,0.042-5.679c-0.778-3.057-3.429-5.012-4.709-7.71
		c-1.308-2.775-0.303-5.474-1.452-8.323c-1.824-4.543-6.093-5.225-8.192-9.402c-1.355-2.699-1.838-5.68-4.247-7.779
		c-2.629-2.273-6.389-2.719-9.707-2.237c-4.694,0.675-7.489,4.688-11.723,6.071l-8.674,2.85c-6.085,1.997-5.651-2.644-6.326-8.309
		c-1.528-12.715-1.962-28.1-13.837-34.323c-3.807-1.996-9.48-3.483-10.099,3.139c-0.186,2.024,2.217,4.695,2.946,6.506
		c1.445,3.677,2.547,7.565,3.256,11.482c2.224,12.26-1.218,25.746-0.398,38.309c0.942,14.498,3.146,27.302-3.347,40.705h-69.589
		V133.554H217.72c71.854,0,107.774,20.72,107.774,62.114c0,7.972-1.582,15.33-4.756,22.069c-3.167,6.746-7.655,12.812-13.451,18.222
		c-5.797,5.425-12.771,10.093-20.969,14.015c-8.205,3.945-17.334,7.016-27.397,9.245v0.633c4.378,1.061,8.639,2.782,12.741,5.156
		c4.104,2.376,8.096,5.15,11.924,8.33c3.827,3.181,7.488,6.595,10.986,10.243c3.504,3.648,6.678,7.228,9.575,10.712l55.691,67.256
		H249.937z"/>
</g>
</svg>
